<svg width="187" height="40" viewBox="0 0 187 40" fill="none" xmlns="http://www.w3.org/2000/svg">
<path d="M8.05354 29.025C7.35541 29.025 6.64065 28.9666 5.90927 28.85C5.19452 28.75 4.50469 28.6 3.83981 28.4C3.19154 28.2 2.60976 27.95 2.09447 27.65C1.72879 27.45 1.47114 27.1916 1.32154 26.875C1.17194 26.5416 1.11376 26.2084 1.14701 25.875C1.19687 25.5416 1.32154 25.25 1.52101 25C1.73709 24.7334 2.00305 24.5666 2.31887 24.5C2.65132 24.4166 3.01701 24.475 3.41594 24.675C4.09745 25.0584 4.83714 25.3416 5.63501 25.525C6.44949 25.7084 7.25567 25.8 8.05354 25.8C9.26696 25.8 10.1313 25.6166 10.6466 25.25C11.1619 24.8666 11.4195 24.3916 11.4195 23.825C11.4195 23.3416 11.2367 22.9584 10.871 22.675C10.5053 22.3916 9.86536 22.15 8.95114 21.95L6.13367 21.35C4.53794 21.0166 3.34945 20.45 2.56821 19.65C1.80359 18.8334 1.42127 17.7666 1.42127 16.45C1.42127 15.6166 1.59581 14.8584 1.94487 14.175C2.29394 13.4916 2.78429 12.9 3.41594 12.4C4.04759 11.9 4.79559 11.5167 5.65994 11.25C6.54092 10.9833 7.50501 10.85 8.55221 10.85C9.48305 10.85 10.3973 10.9667 11.2949 11.2C12.1925 11.4167 12.982 11.7417 13.6635 12.175C13.996 12.375 14.2204 12.6334 14.3367 12.95C14.4698 13.25 14.5113 13.5584 14.4614 13.875C14.4281 14.175 14.3035 14.4416 14.0874 14.675C13.8879 14.9084 13.6303 15.0584 13.3145 15.125C12.9987 15.1916 12.6163 15.1166 12.1675 14.9C11.619 14.6166 11.0372 14.4084 10.4222 14.275C9.80719 14.1416 9.17554 14.075 8.52727 14.075C7.82914 14.075 7.23074 14.1666 6.73207 14.35C6.25002 14.5334 5.87602 14.7916 5.61007 15.125C5.36074 15.4584 5.23607 15.8416 5.23607 16.275C5.23607 16.7584 5.41061 17.15 5.75967 17.45C6.10874 17.75 6.71545 17.9916 7.57981 18.175L10.3973 18.775C12.0263 19.125 13.2397 19.6916 14.0375 20.475C14.8354 21.2416 15.2343 22.2584 15.2343 23.525C15.2343 24.3584 15.0682 25.1166 14.7357 25.8C14.4032 26.4666 13.9212 27.0416 13.2895 27.525C12.6579 28.0084 11.9016 28.3834 11.0206 28.65C10.1396 28.9 9.15061 29.025 8.05354 29.025Z" fill="#1373E5"/>
<path d="M19.5383 28.975C18.9732 28.975 18.541 28.8166 18.2418 28.5C17.9426 28.1834 17.793 27.7416 17.793 27.175V12.7C17.793 12.1333 17.9509 11.6917 18.2667 11.375C18.5992 11.0583 19.048 10.9 19.6131 10.9C20.1118 10.9 20.5023 11 20.785 11.2C21.0842 11.3833 21.3584 11.7083 21.6078 12.175L27.3674 22.725H26.5196L32.2792 12.175C32.5286 11.7083 32.7945 11.3833 33.0771 11.2C33.3763 11 33.7669 10.9 34.249 10.9C34.8141 10.9 35.2463 11.0583 35.5455 11.375C35.8613 11.6917 36.0192 12.1333 36.0192 12.7V27.175C36.0192 27.7416 35.8696 28.1834 35.5704 28.5C35.2712 28.8166 34.839 28.975 34.2739 28.975C33.7088 28.975 33.2682 28.8166 32.9524 28.5C32.6532 28.1834 32.5036 27.7416 32.5036 27.175V17.05H33.0522L28.4146 25.375C28.2151 25.6916 27.9991 25.9334 27.7663 26.1C27.5503 26.25 27.2593 26.325 26.8936 26.325C26.528 26.325 26.2288 26.2416 25.996 26.075C25.7633 25.9084 25.5556 25.675 25.3727 25.375L20.6852 17.025H21.2836V27.175C21.2836 27.7416 21.134 28.1834 20.8348 28.5C20.5522 28.8166 20.1201 28.975 19.5383 28.975ZM40.0827 28.975C39.6174 28.975 39.235 28.8666 38.9358 28.65C38.6533 28.4334 38.4704 28.1416 38.3873 27.775C38.3208 27.4084 38.3956 27 38.6117 26.55L44.9946 12.525C45.2606 11.9583 45.5764 11.55 45.9421 11.3C46.3079 11.0333 46.7317 10.9 47.2137 10.9C47.6958 10.9 48.1196 11.0333 48.4853 11.3C48.851 11.55 49.1585 11.9583 49.4078 12.525L55.8406 26.55C56.0568 27 56.1316 27.4166 56.065 27.8C56.0151 28.1666 55.849 28.4584 55.5663 28.675C55.2838 28.875 54.9181 28.975 54.4693 28.975C53.9042 28.975 53.4637 28.8416 53.1478 28.575C52.8486 28.3084 52.5827 27.8916 52.3499 27.325L50.8539 23.85L52.3998 24.925H42.0026L43.5485 23.85L42.0774 27.325C41.8281 27.9084 41.5622 28.3334 41.2795 28.6C41.0136 28.85 40.6147 28.975 40.0827 28.975ZM47.1638 15.25L43.9723 22.875L43.2991 21.9H51.1033L50.4301 22.875L47.2137 15.25H47.1638ZM60.3019 28.975C59.6704 28.975 59.1883 28.8 58.8558 28.45C58.5234 28.1 58.3571 27.6084 58.3571 26.975V13.1C58.3571 12.45 58.5234 11.9583 58.8558 11.625C59.2049 11.2917 59.6953 11.125 60.3269 11.125H66.3857C68.3472 11.125 69.8597 11.6 70.9235 12.55C71.9874 13.5 72.5193 14.825 72.5193 16.525C72.5193 17.625 72.2783 18.575 71.7962 19.375C71.3142 20.175 70.6161 20.7916 69.7018 21.225C68.8042 21.6584 67.6989 21.875 66.3857 21.875L66.5851 21.45H67.6074C68.3055 21.45 68.9123 21.625 69.4275 21.975C69.9595 22.3084 70.4166 22.825 70.7989 23.525L72.3447 26.4C72.5775 26.8166 72.6856 27.225 72.6689 27.625C72.6523 28.025 72.5027 28.35 72.2201 28.6C71.9376 28.85 71.5219 28.975 70.9734 28.975C70.4249 28.975 69.9761 28.8584 69.627 28.625C69.2946 28.3916 68.9954 28.0334 68.7294 27.55L66.3358 23.125C66.0865 22.6584 65.779 22.3416 65.4133 22.175C65.0642 22.0084 64.6321 21.925 64.1167 21.925H62.2218V26.975C62.2218 27.6084 62.0556 28.1 61.7231 28.45C61.4074 28.8 60.9336 28.975 60.3019 28.975ZM62.2218 19.125H65.6875C66.7182 19.125 67.4911 18.9166 68.0063 18.5C68.5383 18.0834 68.8042 17.4584 68.8042 16.625C68.8042 15.8084 68.5383 15.1916 68.0063 14.775C67.4911 14.3584 66.7182 14.15 65.6875 14.15H62.2218V19.125ZM81.3646 28.975C80.7329 28.975 80.2508 28.8 79.9185 28.45C79.586 28.1 79.4198 27.6084 79.4198 26.975V14.325H75.0066C74.4912 14.325 74.0923 14.1834 73.8098 13.9C73.5272 13.6166 73.3859 13.225 73.3859 12.725C73.3859 12.2083 73.5272 11.8167 73.8098 11.55C74.0923 11.2667 74.4912 11.125 75.0066 11.125H87.6977C88.2129 11.125 88.6119 11.2667 88.8945 11.55C89.177 11.8167 89.3183 12.2083 89.3183 12.725C89.3183 13.225 89.177 13.6166 88.8945 13.9C88.6119 14.1834 88.2129 14.325 87.6977 14.325H83.2845V26.975C83.2845 27.6084 83.1182 28.1 82.7858 28.45C82.4699 28.8 81.9962 28.975 81.3646 28.975Z" fill="black"/>
<path d="M128.823 20.1664C128.823 23.4629 127.848 26.6853 126.022 29.4263C124.195 32.1671 121.599 34.3035 118.561 35.565C115.524 36.8265 112.181 37.1565 108.957 36.5134C105.732 35.8704 102.77 34.2829 100.446 31.9519C98.121 29.621 96.5377 26.6511 95.8963 23.418C95.2549 20.1849 95.5841 16.8335 96.8423 13.788C98.1004 10.7425 100.231 8.13936 102.965 6.30792C105.698 4.47649 108.912 3.49896 112.2 3.49896C114.383 3.49896 116.544 3.93009 118.561 4.7677C120.578 5.60531 122.41 6.83301 123.954 8.38072C125.498 9.92844 126.722 11.7658 127.558 13.788C128.393 15.8101 128.823 17.9775 128.823 20.1664ZM121.107 17.2126C121.107 17.0539 121.062 16.8983 120.977 16.7641C120.893 16.6301 120.771 16.5233 120.628 16.4561C120.484 16.389 120.324 16.3645 120.167 16.3855C120.01 16.4066 119.863 16.4723 119.742 16.5748V12.0506C119.74 11.609 119.564 11.1861 119.253 10.8741C118.941 10.5621 118.519 10.3864 118.079 10.3853H106.289C105.849 10.3864 105.427 10.5621 105.115 10.8741C104.804 11.1861 104.628 11.609 104.626 12.0506V16.5769C104.505 16.4754 104.358 16.4105 104.201 16.3899C104.045 16.3693 103.886 16.3938 103.743 16.4604C103.6 16.527 103.478 16.6333 103.393 16.7664C103.308 16.8996 103.262 17.0544 103.262 17.2126V17.901C103.262 18.0595 103.307 18.2145 103.392 18.348C103.477 18.4816 103.599 18.588 103.742 18.655C103.885 18.7219 104.044 18.7465 104.201 18.726C104.358 18.7055 104.505 18.6406 104.626 18.539V20.621C104.453 20.7769 104.315 20.9674 104.22 21.1804C104.126 21.3933 104.077 21.6238 104.076 21.8569V24.941C103.931 24.9764 103.802 25.0594 103.71 25.177C103.617 25.2945 103.567 25.4398 103.566 25.5895V27.1179C103.567 27.2944 103.638 27.4633 103.762 27.5879C103.887 27.7124 104.056 27.7826 104.232 27.7831H105.181V29.3158C105.181 29.4926 105.252 29.662 105.376 29.7871C105.501 29.9121 105.67 29.9826 105.846 29.9831H107.198C107.375 29.9826 107.544 29.9121 107.669 29.7871C107.793 29.662 107.864 29.4926 107.864 29.3158V27.7831H116.221V29.3158C116.221 29.4924 116.291 29.6619 116.415 29.787C116.539 29.912 116.708 29.9826 116.884 29.9831H118.522C118.609 29.9831 118.696 29.9659 118.777 29.9324C118.857 29.8989 118.931 29.8496 118.993 29.7878C119.054 29.7258 119.103 29.6521 119.137 29.5713C119.17 29.4903 119.188 29.4035 119.188 29.3158V27.7831H120.136C120.313 27.7831 120.482 27.7131 120.606 27.5885C120.731 27.4638 120.802 27.2945 120.802 27.1179V25.5895C120.802 25.4398 120.751 25.2945 120.659 25.177C120.566 25.0594 120.437 24.9764 120.292 24.941V21.8569C120.292 21.6238 120.243 21.3933 120.148 21.1804C120.053 20.9674 119.915 20.7769 119.742 20.621V18.539C119.863 18.6415 120.01 18.7071 120.167 18.7281C120.324 18.7491 120.484 18.7246 120.628 18.6576C120.771 18.5905 120.893 18.4836 120.977 18.3495C121.062 18.2155 121.107 18.0599 121.107 17.901V17.2126ZM106.724 21.4379C106.494 21.4384 106.269 21.5071 106.078 21.6355C105.887 21.7639 105.738 21.9463 105.651 22.1594C105.563 22.3725 105.54 22.607 105.586 22.833C105.631 23.0591 105.742 23.2668 105.904 23.4296C106.067 23.5926 106.274 23.7035 106.5 23.7483C106.725 23.7931 106.959 23.7699 107.172 23.6815C107.384 23.5933 107.566 23.4438 107.693 23.252C107.821 23.0603 107.889 22.8348 107.889 22.6043C107.889 22.4509 107.859 22.299 107.8 22.1574C107.742 22.0158 107.656 21.8871 107.548 21.7788C107.44 21.6704 107.311 21.5846 107.17 21.5261C107.028 21.4676 106.877 21.4376 106.724 21.4379ZM105.958 14.9579H111.522V20.1895H105.958V14.9579ZM117.984 12.6105C117.984 12.3898 117.896 12.1783 117.74 12.0224C117.584 11.8665 117.373 11.779 117.153 11.779H107.215C107.002 11.7897 106.802 11.8821 106.655 12.0371C106.508 12.1921 106.426 12.3977 106.426 12.6116C106.426 12.8255 106.508 13.0311 106.655 13.1861C106.802 13.3411 107.002 13.4335 107.215 13.4443H117.153C117.374 13.4443 117.585 13.3564 117.741 13.2C117.897 13.0438 117.984 12.8316 117.984 12.6105ZM112.849 14.9579H118.413V20.1895H112.849V14.9579ZM117.644 21.4379C117.414 21.4379 117.189 21.5063 116.998 21.6345C116.807 21.7626 116.658 21.9448 116.57 22.1579C116.482 22.371 116.458 22.6055 116.503 22.8318C116.548 23.058 116.659 23.2659 116.822 23.4289C116.984 23.592 117.192 23.7031 117.417 23.7481C117.643 23.7931 117.877 23.77 118.089 23.6818C118.302 23.5935 118.484 23.444 118.611 23.2523C118.739 23.0604 118.807 22.8349 118.807 22.6043C118.807 22.2949 118.685 21.9983 118.467 21.7795C118.249 21.5608 117.953 21.4379 117.644 21.4379Z" fill="#1373E5"/>
<path d="M138.43 28.75C137.781 28.75 137.283 28.575 136.934 28.225C136.585 27.875 136.41 27.375 136.41 26.725V13.15C136.41 12.5 136.585 12 136.934 11.65C137.283 11.3 137.781 11.125 138.43 11.125H144.464C145.71 11.125 146.774 11.3083 147.655 11.675C148.536 12.0417 149.201 12.5666 149.65 13.25C150.115 13.9334 150.348 14.75 150.348 15.7C150.348 16.75 150.049 17.6416 149.45 18.375C148.852 19.1084 148.029 19.6 146.982 19.85V19.45C148.195 19.6666 149.135 20.15 149.799 20.9C150.481 21.6334 150.822 22.5916 150.822 23.775C150.822 25.3416 150.282 26.5666 149.201 27.45C148.12 28.3166 146.633 28.75 144.738 28.75H138.43ZM140.1 25.875H144.214C145.212 25.875 145.943 25.6834 146.408 25.3C146.873 24.9 147.107 24.3166 147.107 23.55C147.107 22.7834 146.873 22.2084 146.408 21.825C145.943 21.4416 145.212 21.25 144.214 21.25H140.1V25.875ZM140.1 18.375H143.79C144.754 18.375 145.47 18.1916 145.935 17.825C146.4 17.4584 146.633 16.9084 146.633 16.175C146.633 15.4584 146.4 14.9166 145.935 14.55C145.47 14.1834 144.754 14 143.79 14H140.1V18.375ZM161.276 29.025C160.03 29.025 158.925 28.8666 157.96 28.55C157.013 28.2166 156.215 27.7334 155.566 27.1C154.918 26.4666 154.428 25.675 154.095 24.725C153.78 23.7584 153.622 22.6416 153.622 21.375V12.875C153.622 12.225 153.789 11.7333 154.12 11.4C154.453 11.0667 154.936 10.9 155.566 10.9C156.182 10.9 156.656 11.0667 156.988 11.4C157.321 11.7333 157.486 12.225 157.486 12.875V21.4C157.486 22.8334 157.81 23.9166 158.459 24.65C159.107 25.3666 160.047 25.725 161.276 25.725C162.507 25.725 163.438 25.3666 164.069 24.65C164.717 23.9166 165.041 22.8334 165.041 21.4V12.875C165.041 12.225 165.208 11.7333 165.54 11.4C165.873 11.0667 166.346 10.9 166.961 10.9C167.577 10.9 168.042 11.0667 168.357 11.4C168.69 11.7333 168.856 12.225 168.856 12.875V21.375C168.856 23.0584 168.565 24.475 167.983 25.625C167.419 26.7584 166.571 27.6084 165.44 28.175C164.327 28.7416 162.939 29.025 161.276 29.025Z" fill="black"/>
<path d="M178.56 29.025C177.862 29.025 177.146 28.9666 176.416 28.85C175.7 28.75 175.011 28.6 174.346 28.4C173.698 28.2 173.116 27.95 172.601 27.65C172.234 27.45 171.978 27.1916 171.828 26.875C171.678 26.5416 171.62 26.2084 171.654 25.875C171.703 25.5416 171.828 25.25 172.028 25C172.243 24.7334 172.509 24.5666 172.825 24.5C173.157 24.4166 173.523 24.475 173.922 24.675C174.603 25.0584 175.344 25.3416 176.141 25.525C176.956 25.7084 177.762 25.8 178.56 25.8C179.773 25.8 180.637 25.6166 181.153 25.25C181.668 24.8666 181.926 24.3916 181.926 23.825C181.926 23.3416 181.743 22.9584 181.378 22.675C181.011 22.3916 180.371 22.15 179.458 21.95L176.64 21.35C175.044 21.0166 173.855 20.45 173.075 19.65C172.309 18.8334 171.928 17.7666 171.928 16.45C171.928 15.6166 172.102 14.8584 172.451 14.175C172.8 13.4916 173.29 12.9 173.922 12.4C174.553 11.9 175.301 11.5167 176.166 11.25C177.047 10.9833 178.012 10.85 179.059 10.85C179.989 10.85 180.904 10.9667 181.801 11.2C182.699 11.4167 183.488 11.7417 184.17 12.175C184.502 12.375 184.726 12.6334 184.843 12.95C184.975 13.25 185.018 13.5584 184.968 13.875C184.934 14.175 184.81 14.4416 184.594 14.675C184.394 14.9084 184.136 15.0584 183.821 15.125C183.504 15.1916 183.123 15.1166 182.674 14.9C182.126 14.6166 181.543 14.4084 180.929 14.275C180.313 14.1416 179.682 14.075 179.034 14.075C178.336 14.075 177.737 14.1666 177.239 14.35C176.756 14.5334 176.382 14.7916 176.117 15.125C175.867 15.4584 175.743 15.8416 175.743 16.275C175.743 16.7584 175.917 17.15 176.266 17.45C176.615 17.75 177.221 17.9916 178.086 18.175L180.904 18.775C182.532 19.125 183.746 19.6916 184.544 20.475C185.342 21.2416 185.741 22.2584 185.741 23.525C185.741 24.3584 185.574 25.1166 185.242 25.8C184.909 26.4666 184.427 27.0416 183.796 27.525C183.164 28.0084 182.407 28.3834 181.527 28.65C180.646 28.9 179.657 29.025 178.56 29.025Z" fill="#1373E5"/>
</svg>
