<?xml version="1.0" standalone="no"?>
<!DOCTYPE svg PUBLIC "-//W3C//DTD SVG 20010904//EN"
 "http://www.w3.org/TR/2001/REC-SVG-20010904/DTD/svg10.dtd">
<svg version="1.0" xmlns="http://www.w3.org/2000/svg"
 width="700.000000pt" height="700.000000pt" viewBox="0 0 700.000000 700.000000"
 preserveAspectRatio="xMidYMid meet">
<metadata>
Created by potrace 1.14, written by Peter Selinger 2001-2017
</metadata>
<g transform="translate(0.000000,700.000000) scale(0.100000,-0.100000)"
fill="#000000" stroke="none">
<path d="M3278 6995 c-1 -1 -41 -6 -88 -9 -47 -4 -94 -9 -105 -11 -11 -2 -42
-7 -70 -10 -27 -3 -72 -10 -100 -15 -27 -5 -61 -12 -75 -14 -153 -28 -314 -71
-475 -126 -115 -40 -134 -47 -217 -84 -20 -9 -38 -16 -41 -16 -13 0 -251 -119
-337 -168 -90 -53 -319 -199 -330 -211 -3 -4 -40 -33 -83 -65 -209 -159 -445
-394 -617 -615 -73 -93 -250 -353 -250 -366 0 -3 -12 -24 -27 -48 -38 -61
-155 -297 -198 -402 -58 -141 -146 -413 -170 -525 -2 -8 -8 -35 -14 -60 -11
-49 -16 -78 -28 -149 -4 -25 -8 -48 -8 -51 -1 -3 -5 -32 -9 -65 -5 -33 -10
-69 -12 -80 -25 -135 -25 -674 0 -813 2 -9 7 -44 11 -77 4 -32 9 -68 11 -80 2
-11 7 -36 10 -55 24 -153 140 -562 188 -665 8 -16 24 -55 36 -85 27 -68 138
-290 192 -385 98 -169 314 -468 412 -571 280 -291 425 -418 666 -578 328 -219
653 -367 1027 -470 144 -40 313 -76 428 -91 22 -2 56 -7 75 -10 197 -27 662
-27 850 1 355 53 633 127 930 249 86 35 353 169 398 200 20 14 40 25 45 25 4
0 13 5 20 10 7 6 64 44 127 86 260 172 482 369 715 635 17 19 46 54 65 79 19
25 38 50 43 55 83 102 241 347 321 500 143 272 275 639 332 919 20 99 46 274
57 381 14 128 15 570 3 665 -3 25 -9 65 -12 90 -3 25 -8 61 -10 80 -5 40 -6
42 -29 165 -20 108 -46 215 -75 310 -12 39 -25 84 -30 100 -29 111 -133 360
-222 533 -202 392 -506 776 -828 1046 -47 39 -87 74 -90 77 -13 16 -231 171
-299 214 -211 131 -415 236 -601 308 -107 42 -318 113 -360 122 -8 2 -42 10
-75 19 -71 18 -196 45 -245 52 -19 3 -60 9 -91 15 -31 5 -81 12 -110 15 -30 3
-67 8 -84 10 -34 6 -542 14 -547 9z m1557 -1455 c89 -29 172 -96 210 -170 41
-79 43 -103 43 -597 1 -263 1 -486 1 -496 1 -16 3 -17 33 -1 37 19 115 21 149
4 77 -40 101 -88 104 -209 2 -115 -7 -162 -41 -206 -47 -61 -158 -81 -221 -39
-27 17 -24 44 -25 -248 0 -167 0 -168 27 -199 35 -43 72 -116 81 -165 4 -21 8
-190 9 -374 1 -184 3 -337 4 -340 0 -3 13 -11 29 -18 15 -7 36 -25 47 -40 18
-24 20 -46 23 -227 4 -235 -3 -261 -73 -295 -34 -16 -61 -20 -153 -20 l-112 0
0 -174 c0 -184 -5 -211 -42 -246 -39 -37 -67 -41 -270 -41 -223 0 -251 7 -289
68 -20 33 -22 49 -23 212 l-1 176 -877 3 c-483 1 -878 -1 -879 -5 0 -5 -1 -88
-2 -185 -2 -162 -4 -179 -23 -205 -44 -58 -66 -64 -253 -64 -191 -1 -227 8
-267 68 -19 29 -21 46 -22 205 0 95 -1 176 -1 180 -1 3 -56 8 -124 10 -115 3
-126 5 -158 29 -52 40 -57 65 -55 281 1 216 5 230 71 269 l34 20 3 367 3 367
27 55 c15 30 40 68 55 85 l28 30 0 216 0 216 -43 -19 c-75 -34 -166 -8 -213
60 -22 32 -24 48 -27 158 -3 107 -1 127 17 162 44 86 148 120 231 77 17 -9 31
-14 31 -13 1 2 2 228 3 504 l2 501 24 62 c45 113 155 202 271 219 29 4 624 7
1323 6 1020 0 1279 -3 1311 -14z"/>
<path d="M2575 5260 c-136 -4 -176 -9 -202 -22 -47 -26 -83 -84 -88 -142 -6
-70 54 -157 123 -175 52 -15 2133 -15 2185 0 77 21 136 112 122 190 -13 75
-74 137 -142 146 -52 6 -1788 9 -1998 3z"/>
<path d="M2197 4590 c-9 -4 -12 -130 -12 -542 0 -295 4 -540 8 -545 5 -4 268
-8 586 -8 l577 0 0 547 c0 302 -2 548 -5 549 -24 4 -1144 3 -1154 -1z"/>
<path d="M3647 4588 c-14 -9 -16 -1086 -2 -1091 9 -3 1122 -1 1153 2 18 2 18
1091 0 1092 -62 5 -1142 2 -1151 -3z"/>
<path d="M2260 3217 c-56 -18 -126 -95 -145 -159 -57 -198 139 -373 329 -294
113 47 174 189 132 307 -33 94 -127 160 -226 158 -30 -1 -71 -6 -90 -12z"/>
<path d="M4555 3214 c-116 -42 -180 -185 -137 -306 44 -123 165 -187 294 -154
176 46 237 276 107 406 -67 66 -171 88 -264 54z"/>
</g>
</svg>
